<?xml version="1.0" encoding="UTF-8" standalone="no"?><!DOCTYPE svg PUBLIC "-//W3C//DTD SVG 1.1//EN" "http://www.w3.org/Graphics/SVG/1.1/DTD/svg11.dtd"><svg width="100%" height="100%" viewBox="0 0 512 512" version="1.1" xmlns="http://www.w3.org/2000/svg" xmlns:xlink="http://www.w3.org/1999/xlink" xml:space="preserve" style="fill-rule:evenodd;clip-rule:evenodd;stroke-linejoin:round;stroke-miterlimit:1.41421;"><rect id="Artboard1" x="0" y="0" width="512" height="512" style="fill:none;"/><g><g><path d="M309.5,419.427l-32.8,0l-48.005,-123.949l31.098,0l20.698,57.854c5.054,14.065 9.285,27.252 12.691,39.558c3.736,-13.186 8.076,-26.372 13.021,-39.558l65.271,-175.538l32.635,0l-94.609,241.633Zm-54.763,-138.083l-24.286,-67.887c-4.425,8.051 -12.394,15.662 -26.736,17.597l-2.393,-6.175c8.645,-1.967 20.635,-7.118 25.849,-20.588l27.566,77.053Z" style="fill:#c62828;"/><path d="M355.81,308.932l12.916,-32.976l117.356,143.471l-42.195,0l-88.077,-110.495Zm-15.067,-57.764l-31.976,85.815l0,-158.428l31.976,0l0,72.613Z" style="fill:#212121;"/></g><g><path id="path8615" d="M161.381,92.573c-69.277,0 -64.951,30.043 -64.951,30.043l0.077,31.124l66.11,0l0,9.345l-92.369,0c0,0 -44.33,-5.028 -44.33,64.874c0,69.902 38.692,67.423 38.692,67.423l23.093,0l0,-32.437c0,0 -1.245,-38.693 38.075,-38.693c39.319,0 65.569,0 65.569,0c0,0 36.839,0.596 36.839,-35.604c0,-36.199 0,-59.854 0,-59.854c0,0 5.594,-36.221 -66.805,-36.221Zm-36.453,20.929c6.578,0 11.894,5.317 11.894,11.894c0,6.577 -5.316,11.894 -11.894,11.894c-6.577,0 -11.894,-5.317 -11.894,-11.894c0,-6.577 5.317,-11.894 11.894,-11.894Z" style="fill:#212121;fill-rule:nonzero;"/><path id="path8620" d="M163.349,364.046c69.277,0 64.951,-30.043 64.951,-30.043l-0.077,-31.124l-66.11,0l0,-9.345l92.369,0c0,0 44.33,5.028 44.33,-64.874c0,-69.902 -38.693,-67.423 -38.693,-67.423l-23.092,0l0,32.437c0,0 1.245,38.693 -38.075,38.693c-39.319,0 -65.569,0 -65.569,0c0,0 -36.839,-0.595 -36.839,35.604c0,36.199 0,59.854 0,59.854c0,0 -5.594,36.221 66.805,36.221Zm36.453,-20.929c-6.578,0 -11.894,-5.316 -11.894,-11.894c0,-6.577 5.316,-11.893 11.894,-11.893c6.577,0 11.893,5.316 11.893,11.893c0.001,6.578 -5.316,11.894 -11.893,11.894Z" style="fill:#c62828;fill-rule:nonzero;"/></g></g></svg>
