<?xml version="1.0" encoding="UTF-8" standalone="no"?><!DOCTYPE svg PUBLIC "-//W3C//DTD SVG 1.1//EN" "http://www.w3.org/Graphics/SVG/1.1/DTD/svg11.dtd"><svg width="100%" height="100%" viewBox="0 0 2134 2134" version="1.1" xmlns="http://www.w3.org/2000/svg" xmlns:xlink="http://www.w3.org/1999/xlink" xml:space="preserve" style="fill-rule:evenodd;clip-rule:evenodd;stroke-linejoin:round;stroke-miterlimit:1.41421;"><rect id="Artboard1" x="0" y="0" width="2133.33" height="2133.33" style="fill:none;"/><g><g><path d="M1289.58,1747.61l-136.667,0l-200.019,-516.454l129.577,0l86.238,241.058c21.061,58.605 38.688,113.547 52.881,164.826c15.567,-54.942 33.652,-109.884 54.255,-164.826l271.961,-731.411l135.981,0l-394.207,1006.81Zm-228.178,-575.348l-101.193,-282.861c-18.437,33.546 -51.641,65.257 -111.4,73.32l-9.969,-25.727c36.022,-8.199 85.98,-29.661 107.705,-85.787l114.857,321.055Z" style="fill:#c62828;"/><path d="M1482.54,1287.22l53.819,-137.399l488.984,597.796l-175.813,0l-366.99,-460.397Zm-62.779,-240.683l-133.234,357.561l0,-660.115l133.234,0l0,302.554Z" style="fill:#212121;"/></g><g><path id="path8615" d="M672.422,385.72c-288.657,0 -270.631,125.179 -270.631,125.179l0.321,129.684l275.459,0l0,38.937l-384.87,0c0,0 -184.711,-20.948 -184.711,270.31c0,291.257 161.22,280.928 161.22,280.928l96.218,0l0,-135.154c0,0 -5.187,-161.221 158.645,-161.221c163.833,0 273.206,0 273.206,0c0,0 153.497,2.482 153.497,-148.348c0,-150.83 0,-249.393 0,-249.393c0,0 23.305,-150.922 -278.354,-150.922Zm-151.888,87.207c27.406,0 49.556,22.15 49.556,49.556c0,27.406 -22.15,49.557 -49.556,49.557c-27.406,0 -49.557,-22.151 -49.557,-49.557c0,-27.406 22.151,-49.556 49.557,-49.556Z" style="fill:#212121;fill-rule:nonzero;"/><path id="path8620" d="M680.62,1516.86c288.657,0 270.631,-125.179 270.631,-125.179l-0.322,-129.684l-275.458,0l0,-38.938l384.869,0c0,0 184.712,20.948 184.712,-270.309c0,-291.257 -161.221,-280.929 -161.221,-280.929l-96.217,0l0,135.155c0,0 5.186,161.22 -158.646,161.22c-163.832,0 -273.206,0 -273.206,0c0,0 -153.497,-2.481 -153.497,148.349c0,150.829 0,249.392 0,249.392c0,0 -23.305,150.923 278.355,150.923Zm151.888,-87.207c-27.406,0 -49.557,-22.151 -49.557,-49.557c0,-27.406 22.151,-49.556 49.557,-49.556c27.406,0 49.557,22.15 49.557,49.556c0,27.406 -22.151,49.557 -49.557,49.557Z" style="fill:#c62828;fill-rule:nonzero;"/></g></g></svg>